# xmcd
#
# Track frame offsets:
#       150
#       12737
#       27495
#       37762
#       50717
#       63185
#       74300
#       89700
#       100187
#       110600
#       121387
#       134385
#
# Disc length: 1954 seconds
#
# Revision: 1
# Processed by: cddbd v1.4PL0 Copyright (c) Steve Scherf et al.
# Submitted via: MusiCat 1.1
#
DISCID=ab07a00c
DTITLE=The Jet Blacks - Remember The Shadow and The Ventures
DYEAR=1900
DGENRE=
TTITLE0=Dance With The (Guitar Man)
TTITLE1=Apache
TTITLE2=Blue Star
TTITLE3=Theme For Young Lovers
TTITLE4=Midnight
TTITLE5=Pipeline
TTITLE6=Riders In The Sky
TTITLE7=Wonderful Land
TTITLE8=Peace Pipe
TTITLE9=The Lonely Bull
TTITLE10=Sleepwalk
TTITLE11=Telstar
EXTD=0\n\n\n
EXTT0=
EXTT1=
EXTT2=
EXTT3=
EXTT4=
EXTT5=
EXTT6=
EXTT7=
EXTT8=
EXTT9=
EXTT10=
EXTT11=
PLAYORDER=
